<svg width="107" height="40" viewBox="0 0 107 40" fill="none" xmlns="http://www.w3.org/2000/svg">
<g clip-path="url(#clip0_1762_5117)">
<path d="M-0.00195312 31.0004V9.40039H12.7931V12.5354H3.13305V18.6254H10.993V21.7754H3.13305V31.0004H-0.00195312ZM19.485 31.4504C18.285 31.4504 17.28 31.2304 16.47 30.7904C15.66 30.3404 15.045 29.7504 14.625 29.0204C14.215 28.2804 14.01 27.4704 14.01 26.5904C14.01 25.7704 14.155 25.0504 14.445 24.4304C14.735 23.8104 15.165 23.2854 15.735 22.8554C16.305 22.4154 17.0051 22.0604 17.8351 21.7904C18.5551 21.5804 19.3701 21.3954 20.2801 21.2354C21.1901 21.0754 22.145 20.9254 23.145 20.7854C24.155 20.6454 25.155 20.5054 26.145 20.3654L25.005 20.9954C25.025 19.7254 24.755 18.7854 24.195 18.1754C23.645 17.5554 22.695 17.2454 21.345 17.2454C20.495 17.2454 19.7151 17.4454 19.0051 17.8454C18.2951 18.2354 17.8001 18.8854 17.5201 19.7954L14.595 18.8954C14.995 17.5054 15.755 16.4004 16.875 15.5804C18.005 14.7604 19.505 14.3504 21.375 14.3504C22.825 14.3504 24.0851 14.6004 25.1551 15.1004C26.2351 15.5904 27.025 16.3704 27.525 17.4404C27.785 17.9704 27.945 18.5304 28.005 19.1204C28.065 19.7104 28.0951 20.3454 28.0951 21.0254V31.0004H25.32V27.2954L25.8601 27.7754C25.1901 29.0154 24.3351 29.9404 23.2951 30.5504C22.2651 31.1504 20.995 31.4504 19.485 31.4504ZM20.04 28.8854C20.93 28.8854 21.6951 28.7304 22.3351 28.4204C22.9751 28.1004 23.49 27.6954 23.88 27.2054C24.27 26.7154 24.525 26.2054 24.645 25.6754C24.815 25.1954 24.91 24.6554 24.93 24.0554C24.96 23.4554 24.975 22.9754 24.975 22.6154L25.995 22.9904C25.005 23.1404 24.1051 23.2754 23.2951 23.3954C22.4851 23.5154 21.75 23.6354 21.09 23.7554C20.44 23.8654 19.8601 24.0004 19.3501 24.1604C18.9201 24.3104 18.535 24.4904 18.195 24.7004C17.865 24.9104 17.6 25.1654 17.4 25.4654C17.21 25.7654 17.1151 26.1304 17.1151 26.5604C17.1151 26.9804 17.22 27.3704 17.43 27.7304C17.64 28.0804 17.9601 28.3604 18.3901 28.5704C18.8201 28.7804 19.37 28.8854 20.04 28.8854ZM33.2721 38.2004L36.4071 29.6654L36.452 32.1854L29.387 14.8004H32.6571L37.937 28.2254H36.977L42.0171 14.8004H45.197L36.257 38.2004H33.2721Z" fill="white"/>
<g filter="url(#filter0_ddd_1762_5117)">
<path fill-rule="evenodd" clip-rule="evenodd" d="M57.1709 0H56.8459H55.565L56.8459 2.6836V11.5478H49.582L46.8979 10.2668V11.5478V11.8742L47.8929 12.8696H58.1669V0.9962L57.1709 0ZM46.8979 14.2824V14.6087V15.8897L49.582 14.6087H56.8459V37.3164L55.565 40H56.8459H57.1709L58.1669 39.0038V13.287H47.8929L46.8979 14.2824ZM59.58 40H59.907H61.1879L59.907 37.3164V14.6087H67.3799L70.0629 15.8897V14.6087V14.2824L70.062 14.2832L69.0659 13.287H58.584V39.0038L59.58 40ZM70.0629 11.8742V11.5478V10.2668L67.3799 11.5478H59.907V2.6836L61.1879 0H59.907H59.58L58.584 0.9962V12.8696H69.0659L70.062 11.8734L70.0629 11.8742Z" fill="white"/>
</g>
<path d="M84.5329 31.0004V23.0354C84.5329 22.4054 84.478 21.7604 84.368 21.1004C84.268 20.4304 84.0679 19.8104 83.7679 19.2404C83.4779 18.6704 83.0629 18.2104 82.5229 17.8604C81.9929 17.5104 81.2979 17.3354 80.4379 17.3354C79.8779 17.3354 79.3479 17.4304 78.8479 17.6204C78.3479 17.8004 77.908 18.0954 77.528 18.5054C77.158 18.9154 76.8629 19.4554 76.6429 20.1254C76.4329 20.7954 76.328 21.6104 76.328 22.5704L74.3779 21.8354C74.3779 20.3654 74.653 19.0704 75.203 17.9504C75.753 16.8204 76.543 15.9404 77.573 15.3104C78.603 14.6804 79.848 14.3654 81.308 14.3654C82.428 14.3654 83.3679 14.5454 84.1279 14.9054C84.8879 15.2654 85.5029 15.7404 85.9729 16.3304C86.4529 16.9104 86.8179 17.5454 87.0679 18.2354C87.3179 18.9254 87.488 19.6004 87.578 20.2604C87.668 20.9204 87.713 21.5004 87.713 22.0004V31.0004H84.5329ZM73.1479 31.0004V9.40039H75.953V21.0554H76.328V31.0004H73.1479ZM98.8049 31.4504C97.1949 31.4504 95.78 31.1004 94.56 30.4004C93.35 29.6904 92.4049 28.7054 91.7249 27.4454C91.0549 26.1754 90.72 24.7054 90.72 23.0354C90.72 21.2654 91.0499 19.7304 91.7099 18.4304C92.3799 17.1304 93.31 16.1254 94.5 15.4154C95.69 14.7054 97.075 14.3504 98.655 14.3504C100.305 14.3504 101.71 14.7354 102.87 15.5054C104.03 16.2654 104.895 17.3504 105.465 18.7604C106.045 20.1704 106.275 21.8454 106.155 23.7854H103.02V22.6454C103 20.7654 102.64 19.3754 101.94 18.4754C101.25 17.5754 100.195 17.1254 98.7749 17.1254C97.2049 17.1254 96.025 17.6204 95.235 18.6104C94.445 19.6004 94.05 21.0304 94.05 22.9004C94.05 24.6804 94.445 26.0604 95.235 27.0404C96.025 28.0104 97.165 28.4954 98.655 28.4954C99.635 28.4954 100.48 28.2754 101.19 27.8354C101.91 27.3854 102.47 26.7454 102.87 25.9154L105.945 26.8904C105.315 28.3404 104.36 29.4654 103.08 30.2654C101.8 31.0554 100.375 31.4504 98.8049 31.4504ZM93.03 23.7854V21.3404H104.595V23.7854H93.03Z" fill="white"/>
</g>
<defs>
<filter id="filter0_ddd_1762_5117" x="-104.302" y="-151.2" width="325.565" height="342.4" filterUnits="userSpaceOnUse" color-interpolation-filters="sRGB">
<feFlood flood-opacity="0" result="BackgroundImageFix"/>
<feColorMatrix in="SourceAlpha" type="matrix" values="0 0 0 0 0 0 0 0 0 0 0 0 0 0 0 0 0 0 127 0" result="hardAlpha"/>
<feOffset/>
<feGaussianBlur stdDeviation="1.8"/>
<feColorMatrix type="matrix" values="0 0 0 0 0.913725 0 0 0 0 0.792157 0 0 0 0 0.00392157 0 0 0 1 0"/>
<feBlend mode="normal" in2="BackgroundImageFix" result="effect1_dropShadow_1762_5117"/>
<feColorMatrix in="SourceAlpha" type="matrix" values="0 0 0 0 0 0 0 0 0 0 0 0 0 0 0 0 0 0 127 0" result="hardAlpha"/>
<feOffset/>
<feGaussianBlur stdDeviation="12.6"/>
<feColorMatrix type="matrix" values="0 0 0 0 0.913725 0 0 0 0 0.792157 0 0 0 0 0.00392157 0 0 0 1 0"/>
<feBlend mode="normal" in2="effect1_dropShadow_1762_5117" result="effect2_dropShadow_1762_5117"/>
<feColorMatrix in="SourceAlpha" type="matrix" values="0 0 0 0 0 0 0 0 0 0 0 0 0 0 0 0 0 0 127 0" result="hardAlpha"/>
<feOffset/>
<feGaussianBlur stdDeviation="75.6"/>
<feColorMatrix type="matrix" values="0 0 0 0 1 0 0 0 0 0.866379 0 0 0 0 0 0 0 0 1 0"/>
<feBlend mode="normal" in2="effect2_dropShadow_1762_5117" result="effect3_dropShadow_1762_5117"/>
<feBlend mode="normal" in="SourceGraphic" in2="effect3_dropShadow_1762_5117" result="shape"/>
</filter>
<clipPath id="clip0_1762_5117">
<rect width="106.19" height="40" fill="white"/>
</clipPath>
</defs>
</svg>
