<svg xmlns="http://www.w3.org/2000/svg" fill="none" viewBox="105.02 13 106.19 40">
<path d="M105.018 44V22.4H117.813V25.535H108.153V31.625H116.013V34.775H108.153V44H105.018ZM124.505 44.45C123.305 44.45 122.3 44.23 121.49 43.79C120.68 43.34 120.065 42.75 119.645 42.02C119.235 41.28 119.03 40.47 119.03 39.59C119.03 38.77 119.175 38.05 119.465 37.43C119.755 36.81 120.185 36.285 120.755 35.855C121.325 35.415 122.025 35.06 122.855 34.79C123.575 34.58 124.39 34.395 125.3 34.235C126.21 34.075 127.165 33.925 128.165 33.785C129.175 33.645 130.175 33.505 131.165 33.365L130.025 33.995C130.045 32.725 129.775 31.785 129.215 31.175C128.665 30.555 127.715 30.245 126.365 30.245C125.515 30.245 124.735 30.445 124.025 30.845C123.315 31.235 122.82 31.885 122.54 32.795L119.615 31.895C120.015 30.505 120.775 29.4 121.895 28.58C123.025 27.76 124.525 27.35 126.395 27.35C127.845 27.35 129.105 27.6 130.175 28.1C131.255 28.59 132.045 29.37 132.545 30.44C132.805 30.97 132.965 31.53 133.025 32.12C133.085 32.71 133.115 33.345 133.115 34.025V44H130.34V40.295L130.88 40.775C130.21 42.015 129.355 42.94 128.315 43.55C127.285 44.15 126.015 44.45 124.505 44.45ZM125.06 41.885C125.95 41.885 126.715 41.73 127.355 41.42C127.995 41.1 128.51 40.695 128.9 40.205C129.29 39.715 129.545 39.205 129.665 38.675C129.835 38.195 129.93 37.655 129.95 37.055C129.98 36.455 129.995 35.975 129.995 35.615L131.015 35.99C130.025 36.14 129.125 36.275 128.315 36.395C127.505 36.515 126.77 36.635 126.11 36.755C125.46 36.865 124.88 37 124.37 37.16C123.94 37.31 123.555 37.49 123.215 37.7C122.885 37.91 122.62 38.165 122.42 38.465C122.23 38.765 122.135 39.13 122.135 39.56C122.135 39.98 122.24 40.37 122.45 40.73C122.66 41.08 122.98 41.36 123.41 41.57C123.84 41.78 124.39 41.885 125.06 41.885ZM138.292 51.2L141.427 42.665L141.472 45.185L134.407 27.8H137.677L142.957 41.225H141.997L147.037 27.8H150.217L141.277 51.2H138.292Z" fill="#141417"/>
<g filter="url(#filter0_ddd_824_11258)">
<path fill-rule="evenodd" clip-rule="evenodd" d="M162.191 13H161.866H160.585L161.866 15.6836V24.5478H154.602L151.918 23.2668V24.5478V24.8742L152.913 25.8696H163.187V13.9962L162.191 13L162.191 13ZM151.918 27.2824V27.6087V28.8897L154.602 27.6087H161.866V50.3164L160.585 53H161.866L162.191 53L163.187 52.0038V26.287H152.913L151.918 27.2824ZM164.6 53L164.927 53H166.208L164.927 50.3164V27.6087H172.4L175.083 28.8897V27.6087V27.2824L175.082 27.2832L174.086 26.287H163.604V52.0038L164.6 53ZM175.083 24.8742V24.5478V23.2668L172.4 24.5478H164.927V15.6836L166.208 13H164.927H164.6L164.6 13L163.604 13.9962V25.8696H174.086L175.082 24.8734L175.083 24.8742Z" fill="#7A7473"/>
</g>
<path d="M189.553 44V36.035C189.553 35.405 189.498 34.76 189.388 34.1C189.288 33.43 189.088 32.81 188.788 32.24C188.498 31.67 188.083 31.21 187.543 30.86C187.013 30.51 186.318 30.335 185.458 30.335C184.898 30.335 184.368 30.43 183.868 30.62C183.368 30.8 182.928 31.095 182.548 31.505C182.178 31.915 181.883 32.455 181.663 33.125C181.453 33.795 181.348 34.61 181.348 35.57L179.398 34.835C179.398 33.365 179.673 32.07 180.223 30.95C180.773 29.82 181.563 28.94 182.593 28.31C183.623 27.68 184.868 27.365 186.328 27.365C187.448 27.365 188.388 27.545 189.148 27.905C189.908 28.265 190.523 28.74 190.993 29.33C191.473 29.91 191.838 30.545 192.088 31.235C192.338 31.925 192.508 32.6 192.598 33.26C192.688 33.92 192.733 34.5 192.733 35V44H189.553ZM178.168 44V22.4H180.973V34.055H181.348V44H178.168ZM203.825 44.45C202.215 44.45 200.8 44.1 199.58 43.4C198.37 42.69 197.425 41.705 196.745 40.445C196.075 39.175 195.74 37.705 195.74 36.035C195.74 34.265 196.07 32.73 196.73 31.43C197.4 30.13 198.33 29.125 199.52 28.415C200.71 27.705 202.095 27.35 203.675 27.35C205.325 27.35 206.73 27.735 207.89 28.505C209.05 29.265 209.915 30.35 210.485 31.76C211.065 33.17 211.295 34.845 211.175 36.785H208.04V35.645C208.02 33.765 207.66 32.375 206.96 31.475C206.27 30.575 205.215 30.125 203.795 30.125C202.225 30.125 201.045 30.62 200.255 31.61C199.465 32.6 199.07 34.03 199.07 35.9C199.07 37.68 199.465 39.06 200.255 40.04C201.045 41.01 202.185 41.495 203.675 41.495C204.655 41.495 205.5 41.275 206.21 40.835C206.93 40.385 207.49 39.745 207.89 38.915L210.965 39.89C210.335 41.34 209.38 42.465 208.1 43.265C206.82 44.055 205.395 44.45 203.825 44.45ZM198.05 36.785V34.34H209.615V36.785H198.05Z" fill="#141417"/>
<defs>
<filter id="filter0_ddd_824_11258" x="0.717972" y="-138.2" width="325.565" height="342.4" filterUnits="userSpaceOnUse" color-interpolation-filters="sRGB">
<feFlood flood-opacity="0" result="BackgroundImageFix"/>
<feColorMatrix in="SourceAlpha" type="matrix" values="0 0 0 0 0 0 0 0 0 0 0 0 0 0 0 0 0 0 127 0" result="hardAlpha"/>
<feOffset/>
<feGaussianBlur stdDeviation="1.8"/>
<feColorMatrix type="matrix" values="0 0 0 0 0.913725 0 0 0 0 0.792157 0 0 0 0 0.00392157 0 0 0 1 0"/>
<feBlend mode="normal" in2="BackgroundImageFix" result="effect1_dropShadow_824_11258"/>
<feColorMatrix in="SourceAlpha" type="matrix" values="0 0 0 0 0 0 0 0 0 0 0 0 0 0 0 0 0 0 127 0" result="hardAlpha"/>
<feOffset/>
<feGaussianBlur stdDeviation="12.6"/>
<feColorMatrix type="matrix" values="0 0 0 0 0.913725 0 0 0 0 0.792157 0 0 0 0 0.00392157 0 0 0 1 0"/>
<feBlend mode="normal" in2="effect1_dropShadow_824_11258" result="effect2_dropShadow_824_11258"/>
<feColorMatrix in="SourceAlpha" type="matrix" values="0 0 0 0 0 0 0 0 0 0 0 0 0 0 0 0 0 0 127 0" result="hardAlpha"/>
<feOffset/>
<feGaussianBlur stdDeviation="75.6"/>
<feColorMatrix type="matrix" values="0 0 0 0 1 0 0 0 0 0.866379 0 0 0 0 0 0 0 0 1 0"/>
<feBlend mode="normal" in2="effect2_dropShadow_824_11258" result="effect3_dropShadow_824_11258"/>
<feBlend mode="normal" in="SourceGraphic" in2="effect3_dropShadow_824_11258" result="shape"/>
</filter>
</defs>
</svg>